<svg xmlns="http://www.w3.org/2000/svg" width="16" height="20" viewBox="0 0 16 20">
    <g fill="none" fill-rule="evenodd">
        <path d="M-4-2h24v24H-4z"/>
        <path fill="#FFF" fill-rule="nonzero" d="M8 20c1.1 0 2-.9 2-2H6c0 1.1.9 2 2 2zm6-6V9c0-3.07-1.63-5.64-4.5-6.32V2C9.5 1.17 8.83.5 8 .5S6.5 1.17 6.5 2v.68C3.64 3.36 2 5.92 2 9v5L.354 15.646A1.207 1.207 0 0 0 0 16.5a.5.5 0 0 0 .5.5h15a.5.5 0 0 0 .5-.5c0-.32-.127-.627-.354-.854L14 14zm-3 1H5a1 1 0 0 1-1-1V9c0-2.48 1.51-4.5 4-4.5s4 2.02 4 4.5v5a1 1 0 0 1-1 1z"/>
    </g>
</svg>
